<?xml version='1.0' encoding='us-ascii'?>
<svg width="338.40mm" height="340.80mm" viewBox="0.0 0.0 338.40 340.80" xmlns="http://www.w3.org/2000/svg" xmlns:dc="http://purl.org/dc/elements/1.1/" xmlns:cc="http://creativecommons.org/ns#" xmlns:rdf="http://www.w3.org/1999/02/22-rdf-syntax-ns#" xmlns:svg="http://www.w3.org/2000/svg" xmlns:xlink="http://www.w3.org/1999/xlink" xmlns:inkscape="http://www.inkscape.org/namespaces/inkscape">
<!--
ClosedBox - Fully closed box


This box is more of a building block than a finished item.
Use a vector graphics program (like Inkscape) to add holes or adjust the base
plate.

See BasedBox for variant with a base.


Created with Boxes.py (https://festi.info/boxes.py)
Creation date: 2024-07-09 13:33:30
Command line (remove spaces between dashes): boxes ClosedBox - -FingerJoint_angle=90.0 - -FingerJoint_style=rectangular - -FingerJoint_surroundingspaces=2.0 - -FingerJoint_edge_width=1.0 - -FingerJoint_extra_length=0.0 - -FingerJoint_finger=2.0 - -FingerJoint_play=0.0 - -FingerJoint_space=2.0 - -FingerJoint_width=1.0 - -x=150 - -y=80 - -h=100.0 - -outside=0 - -thickness=4.0 - -format=svg - -tabs=0.0 - -debug=0 - -labels=0 - -labels=1 - -reference=100 - -inner_corners=loop - -burn=0.1
Url: http://boxes.boringplace.org/ClosedBox?FingerJoint_angle=90.0&FingerJoint_style=rectangular&FingerJoint_surroundingspaces=2.0&FingerJoint_edge_width=1.0&FingerJoint_extra_length=0.0&FingerJoint_finger=2.0&FingerJoint_play=0.0&FingerJoint_space=2.0&FingerJoint_width=1.0&x=150&y=80&h=100.0&outside=0&thickness=4.0&format=svg&tabs=0.0&debug=0&labels=0&labels=1&reference=100&inner_corners=loop&burn=0.1&render=1
SettingsUrl: http://boxes.boringplace.org/ClosedBox?FingerJoint_angle=90.0&FingerJoint_style=rectangular&FingerJoint_surroundingspaces=2.0&FingerJoint_edge_width=1.0&FingerJoint_extra_length=0.0&FingerJoint_finger=2.0&FingerJoint_play=0.0&FingerJoint_space=2.0&FingerJoint_width=1.0&x=150&y=80&h=100.0&outside=0&thickness=4.0&format=svg&tabs=0.0&debug=0&labels=0&labels=1&reference=100&inner_corners=loop&burn=0.1
-->
<title>ClosedBox</title>
<metadata>
<rdf:RDF><cc:Work>
<dc:title>Box - ClosedBox</dc:title>
<dc:date>2024-07-09 13:33:30</dc:date>
<dc:source>http://boxes.boringplace.org/ClosedBox?FingerJoint_angle=90.0&amp;FingerJoint_style=rectangular&amp;FingerJoint_surroundingspaces=2.0&amp;FingerJoint_edge_width=1.0&amp;FingerJoint_extra_length=0.0&amp;FingerJoint_finger=2.0&amp;FingerJoint_play=0.0&amp;FingerJoint_space=2.0&amp;FingerJoint_width=1.0&amp;x=150&amp;y=80&amp;h=100.0&amp;outside=0&amp;thickness=4.0&amp;format=svg&amp;tabs=0.0&amp;debug=0&amp;labels=0&amp;labels=1&amp;reference=100&amp;inner_corners=loop&amp;burn=0.1&amp;render=1</dc:source>
<dc:description>Fully closed box

This box is more of a building block than a finished item.
Use a vector graphics program (like Inkscape) to add holes or adjust the base
plate.

See BasedBox for variant with a base.

Created with Boxes.py (https://festi.info/boxes.py)
Command line: boxes ClosedBox --FingerJoint_angle=90.0 --FingerJoint_style=rectangular --FingerJoint_surroundingspaces=2.0 --FingerJoint_edge_width=1.0 --FingerJoint_extra_length=0.0 --FingerJoint_finger=2.0 --FingerJoint_play=0.0 --FingerJoint_space=2.0 --FingerJoint_width=1.0 --x=150 --y=80 --h=100.0 --outside=0 --thickness=4.0 --format=svg --tabs=0.0 --debug=0 --labels=0 --labels=1 --reference=100 --inner_corners=loop --burn=0.1
Url: http://boxes.boringplace.org/ClosedBox?FingerJoint_angle=90.0&amp;FingerJoint_style=rectangular&amp;FingerJoint_surroundingspaces=2.0&amp;FingerJoint_edge_width=1.0&amp;FingerJoint_extra_length=0.0&amp;FingerJoint_finger=2.0&amp;FingerJoint_play=0.0&amp;FingerJoint_space=2.0&amp;FingerJoint_width=1.0&amp;x=150&amp;y=80&amp;h=100.0&amp;outside=0&amp;thickness=4.0&amp;format=svg&amp;tabs=0.0&amp;debug=0&amp;labels=0&amp;labels=1&amp;reference=100&amp;inner_corners=loop&amp;burn=0.1&amp;render=1
SettingsUrl: http://boxes.boringplace.org/ClosedBox?FingerJoint_angle=90.0&amp;FingerJoint_style=rectangular&amp;FingerJoint_surroundingspaces=2.0&amp;FingerJoint_edge_width=1.0&amp;FingerJoint_extra_length=0.0&amp;FingerJoint_finger=2.0&amp;FingerJoint_play=0.0&amp;FingerJoint_space=2.0&amp;FingerJoint_width=1.0&amp;x=150&amp;y=80&amp;h=100.0&amp;outside=0&amp;thickness=4.0&amp;format=svg&amp;tabs=0.0&amp;debug=0&amp;labels=0&amp;labels=1&amp;reference=100&amp;inner_corners=loop&amp;burn=0.1
</dc:description>
</cc:Work></rdf:RDF></metadata>
<g id="p-0" style="fill:none;stroke-linecap:round;stroke-linejoin:round;">
  <path d="M 10.100 330.800 H 110.100 V 320.800 H 10.100 V 330.800 Z" stroke="rgb(0,0,0)" stroke-width="0.20" />
  <text transform="matrix( 1.000 0.000 0.000 1.000 60.100 320.800 )" style="font-family: sans-serif ; font-weight: normal; font-style: normal; fill: rgb(0,0,0)" font-size="10px" text-anchor="middle" alignment-baseline="hanging">100mm</text>
</g>
<g id="p-1" style="fill:none;stroke-linecap:round;stroke-linejoin:round;">
  <text transform="matrix( 1.000 0.000 0.000 1.000 89.100 262.600 )" style="font-family: sans-serif ; font-weight: normal; font-style: normal; fill: rgb(255,0,0)" font-size="4px" text-anchor="middle" alignment-baseline="hanging">Wall 1</text><path d="M 14.100 318.600 H 29.100 C 29.155 318.600 29.200 318.555 29.200 318.500 V 314.600 C 29.200 314.500 29.100 314.600 29.200 314.600 H 37.000 C 37.100 314.600 37.000 314.500 37.000 314.600 V 318.500 C 37.000 318.555 37.045 318.600 37.100 318.600 H 45.100 C 45.155 318.600 45.200 318.555 45.200 318.500 V 314.600 C 45.200 314.500 45.100 314.600 45.200 314.600 H 53.000 C 53.100 314.600 53.000 314.500 53.000 314.600 V 318.500 C 53.000 318.555 53.045 318.600 53.100 318.600 H 61.100 C 61.155 318.600 61.200 318.555 61.200 318.500 V 314.600 C 61.200 314.500 61.100 314.600 61.200 314.600 H 69.000 C 69.100 314.600 69.000 314.500 69.000 314.600 V 318.500 C 69.000 318.555 69.045 318.600 69.100 318.600 H 77.100 C 77.155 318.600 77.200 318.555 77.200 318.500 V 314.600 C 77.200 314.500 77.100 314.600 77.200 314.600 H 85.000 C 85.100 314.600 85.000 314.500 85.000 314.600 V 318.500 C 85.000 318.555 85.045 318.600 85.100 318.600 H 93.100 C 93.155 318.600 93.200 318.555 93.200 318.500 V 314.600 C 93.200 314.500 93.100 314.600 93.200 314.600 H 101.000 C 101.100 314.600 101.000 314.500 101.000 314.600 V 318.500 C 101.000 318.555 101.045 318.600 101.100 318.600 H 109.100 C 109.155 318.600 109.200 318.555 109.200 318.500 V 314.600 C 109.200 314.500 109.100 314.600 109.200 314.600 H 117.000 C 117.100 314.600 117.000 314.500 117.000 314.600 V 318.500 C 117.000 318.555 117.045 318.600 117.100 318.600 H 125.100 C 125.155 318.600 125.200 318.555 125.200 318.500 V 314.600 C 125.200 314.500 125.100 314.600 125.200 314.600 H 133.000 C 133.100 314.600 133.000 314.500 133.000 314.600 V 318.500 C 133.000 318.555 133.045 318.600 133.100 318.600 H 141.100 C 141.155 318.600 141.200 318.555 141.200 318.500 V 314.600 C 141.200 314.500 141.100 314.600 141.200 314.600 H 149.000 C 149.100 314.600 149.000 314.500 149.000 314.600 V 318.500 C 149.000 318.555 149.045 318.600 149.100 318.600 H 164.100 H 168.100 C 168.155 318.600 168.200 318.555 168.200 318.500 V 314.500 V 300.500 C 168.200 300.445 168.155 300.400 168.100 300.400 H 164.200 C 164.100 300.400 164.200 300.500 164.200 300.400 V 292.600 C 164.200 292.500 164.100 292.600 164.200 292.600 H 168.100 C 168.155 292.600 168.200 292.555 168.200 292.500 V 284.500 C 168.200 284.445 168.155 284.400 168.100 284.400 H 164.200 C 164.100 284.400 164.200 284.500 164.200 284.400 V 276.600 C 164.200 276.500 164.100 276.600 164.200 276.600 H 168.100 C 168.155 276.600 168.200 276.555 168.200 276.500 V 268.500 C 168.200 268.445 168.155 268.400 168.100 268.400 H 164.200 C 164.100 268.400 164.200 268.500 164.200 268.400 V 260.600 C 164.200 260.500 164.100 260.600 164.200 260.600 H 168.100 C 168.155 260.600 168.200 260.555 168.200 260.500 V 252.500 C 168.200 252.445 168.155 252.400 168.100 252.400 H 164.200 C 164.100 252.400 164.200 252.500 164.200 252.400 V 244.600 C 164.200 244.500 164.100 244.600 164.200 244.600 H 168.100 C 168.155 244.600 168.200 244.555 168.200 244.500 V 236.500 C 168.200 236.445 168.155 236.400 168.100 236.400 H 164.200 C 164.100 236.400 164.200 236.500 164.200 236.400 V 228.600 C 164.200 228.500 164.100 228.600 164.200 228.600 H 168.100 C 168.155 228.600 168.200 228.555 168.200 228.500 V 214.500 V 210.500 C 168.200 210.445 168.155 210.400 168.100 210.400 H 164.100 H 149.100 C 149.045 210.400 149.000 210.445 149.000 210.500 V 214.400 C 149.000 214.500 149.100 214.400 149.000 214.400 H 141.200 C 141.100 214.400 141.200 214.500 141.200 214.400 V 210.500 C 141.200 210.445 141.155 210.400 141.100 210.400 H 133.100 C 133.045 210.400 133.000 210.445 133.000 210.500 V 214.400 C 133.000 214.500 133.100 214.400 133.000 214.400 H 125.200 C 125.100 214.400 125.200 214.500 125.200 214.400 V 210.500 C 125.200 210.445 125.155 210.400 125.100 210.400 H 117.100 C 117.045 210.400 117.000 210.445 117.000 210.500 V 214.400 C 117.000 214.500 117.100 214.400 117.000 214.400 H 109.200 C 109.100 214.400 109.200 214.500 109.200 214.400 V 210.500 C 109.200 210.445 109.155 210.400 109.100 210.400 H 101.100 C 101.045 210.400 101.000 210.445 101.000 210.500 V 214.400 C 101.000 214.500 101.100 214.400 101.000 214.400 H 93.200 C 93.100 214.400 93.200 214.500 93.200 214.400 V 210.500 C 93.200 210.445 93.155 210.400 93.100 210.400 H 85.100 C 85.045 210.400 85.000 210.445 85.000 210.500 V 214.400 C 85.000 214.500 85.100 214.400 85.000 214.400 H 77.200 C 77.100 214.400 77.200 214.500 77.200 214.400 V 210.500 C 77.200 210.445 77.155 210.400 77.100 210.400 H 69.100 C 69.045 210.400 69.000 210.445 69.000 210.500 V 214.400 C 69.000 214.500 69.100 214.400 69.000 214.400 H 61.200 C 61.100 214.400 61.200 214.500 61.200 214.400 V 210.500 C 61.200 210.445 61.155 210.400 61.100 210.400 H 53.100 C 53.045 210.400 53.000 210.445 53.000 210.500 V 214.400 C 53.000 214.500 53.100 214.400 53.000 214.400 H 45.200 C 45.100 214.400 45.200 214.500 45.200 214.400 V 210.500 C 45.200 210.445 45.155 210.400 45.100 210.400 H 37.100 C 37.045 210.400 37.000 210.445 37.000 210.500 V 214.400 C 37.000 214.500 37.100 214.400 37.000 214.400 H 29.200 C 29.100 214.400 29.200 214.500 29.200 214.400 V 210.500 C 29.200 210.445 29.155 210.400 29.100 210.400 H 14.100 H 10.100 C 10.045 210.400 10.000 210.445 10.000 210.500 V 214.500 V 228.500 C 10.000 228.555 10.045 228.600 10.100 228.600 H 14.000 C 14.100 228.600 14.000 228.500 14.000 228.600 V 236.400 C 14.000 236.500 14.100 236.400 14.000 236.400 H 10.100 C 10.045 236.400 10.000 236.445 10.000 236.500 V 244.500 C 10.000 244.555 10.045 244.600 10.100 244.600 H 14.000 C 14.100 244.600 14.000 244.500 14.000 244.600 V 252.400 C 14.000 252.500 14.100 252.400 14.000 252.400 H 10.100 C 10.045 252.400 10.000 252.445 10.000 252.500 V 260.500 C 10.000 260.555 10.045 260.600 10.100 260.600 H 14.000 C 14.100 260.600 14.000 260.500 14.000 260.600 V 268.400 C 14.000 268.500 14.100 268.400 14.000 268.400 H 10.100 C 10.045 268.400 10.000 268.445 10.000 268.500 V 276.500 C 10.000 276.555 10.045 276.600 10.100 276.600 H 14.000 C 14.100 276.600 14.000 276.500 14.000 276.600 V 284.400 C 14.000 284.500 14.100 284.400 14.000 284.400 H 10.100 C 10.045 284.400 10.000 284.445 10.000 284.500 V 292.500 C 10.000 292.555 10.045 292.600 10.100 292.600 H 14.000 C 14.100 292.600 14.000 292.500 14.000 292.600 V 300.400 C 14.000 300.500 14.100 300.400 14.000 300.400 H 10.100 C 10.045 300.400 10.000 300.445 10.000 300.500 V 314.500 V 318.500 C 10.000 318.555 10.045 318.600 10.100 318.600 H 14.100" stroke="rgb(0,0,0)" stroke-width="0.20" />
</g>
<g id="p-2" style="fill:none;stroke-linecap:round;stroke-linejoin:round;">
  <text transform="matrix( 1.000 0.000 0.000 1.000 214.300 262.600 )" style="font-family: sans-serif ; font-weight: normal; font-style: normal; fill: rgb(255,0,0)" font-size="4px" text-anchor="middle" alignment-baseline="hanging">Wall 2</text><path d="M 174.300 318.600 H 186.300 C 186.355 318.600 186.400 318.555 186.400 318.500 V 314.600 C 186.400 314.500 186.300 314.600 186.400 314.600 H 194.200 C 194.300 314.600 194.200 314.500 194.200 314.600 V 318.500 C 194.200 318.555 194.245 318.600 194.300 318.600 H 202.300 C 202.355 318.600 202.400 318.555 202.400 318.500 V 314.600 C 202.400 314.500 202.300 314.600 202.400 314.600 H 210.200 C 210.300 314.600 210.200 314.500 210.200 314.600 V 318.500 C 210.200 318.555 210.245 318.600 210.300 318.600 H 218.300 C 218.355 318.600 218.400 318.555 218.400 318.500 V 314.600 C 218.400 314.500 218.300 314.600 218.400 314.600 H 226.200 C 226.300 314.600 226.200 314.500 226.200 314.600 V 318.500 C 226.200 318.555 226.245 318.600 226.300 318.600 H 234.300 C 234.355 318.600 234.400 318.555 234.400 318.500 V 314.600 C 234.400 314.500 234.300 314.600 234.400 314.600 H 242.200 C 242.300 314.600 242.200 314.500 242.200 314.600 V 318.500 C 242.200 318.555 242.245 318.600 242.300 318.600 H 254.300 C 254.355 318.600 254.400 318.555 254.400 318.500 V 314.500 V 300.600 C 254.400 300.500 254.300 300.600 254.400 300.600 H 258.300 C 258.355 300.600 258.400 300.555 258.400 300.500 V 292.500 C 258.400 292.445 258.355 292.400 258.300 292.400 H 254.400 C 254.300 292.400 254.400 292.500 254.400 292.400 V 284.600 C 254.400 284.500 254.300 284.600 254.400 284.600 H 258.300 C 258.355 284.600 258.400 284.555 258.400 284.500 V 276.500 C 258.400 276.445 258.355 276.400 258.300 276.400 H 254.400 C 254.300 276.400 254.400 276.500 254.400 276.400 V 268.600 C 254.400 268.500 254.300 268.600 254.400 268.600 H 258.300 C 258.355 268.600 258.400 268.555 258.400 268.500 V 260.500 C 258.400 260.445 258.355 260.400 258.300 260.400 H 254.400 C 254.300 260.400 254.400 260.500 254.400 260.400 V 252.600 C 254.400 252.500 254.300 252.600 254.400 252.600 H 258.300 C 258.355 252.600 258.400 252.555 258.400 252.500 V 244.500 C 258.400 244.445 258.355 244.400 258.300 244.400 H 254.400 C 254.300 244.400 254.400 244.500 254.400 244.400 V 236.600 C 254.400 236.500 254.300 236.600 254.400 236.600 H 258.300 C 258.355 236.600 258.400 236.555 258.400 236.500 V 228.500 C 258.400 228.445 258.355 228.400 258.300 228.400 H 254.400 C 254.300 228.400 254.400 228.500 254.400 228.400 V 214.500 V 210.500 C 254.400 210.445 254.355 210.400 254.300 210.400 H 242.300 C 242.245 210.400 242.200 210.445 242.200 210.500 V 214.400 C 242.200 214.500 242.300 214.400 242.200 214.400 H 234.400 C 234.300 214.400 234.400 214.500 234.400 214.400 V 210.500 C 234.400 210.445 234.355 210.400 234.300 210.400 H 226.300 C 226.245 210.400 226.200 210.445 226.200 210.500 V 214.400 C 226.200 214.500 226.300 214.400 226.200 214.400 H 218.400 C 218.300 214.400 218.400 214.500 218.400 214.400 V 210.500 C 218.400 210.445 218.355 210.400 218.300 210.400 H 210.300 C 210.245 210.400 210.200 210.445 210.200 210.500 V 214.400 C 210.200 214.500 210.300 214.400 210.200 214.400 H 202.400 C 202.300 214.400 202.400 214.500 202.400 214.400 V 210.500 C 202.400 210.445 202.355 210.400 202.300 210.400 H 194.300 C 194.245 210.400 194.200 210.445 194.200 210.500 V 214.400 C 194.200 214.500 194.300 214.400 194.200 214.400 H 186.400 C 186.300 214.400 186.400 214.500 186.400 214.400 V 210.500 C 186.400 210.445 186.355 210.400 186.300 210.400 H 174.300 C 174.245 210.400 174.200 210.445 174.200 210.500 V 214.500 V 228.400 C 174.200 228.500 174.300 228.400 174.200 228.400 H 170.300 C 170.245 228.400 170.200 228.445 170.200 228.500 V 236.500 C 170.200 236.555 170.245 236.600 170.300 236.600 H 174.200 C 174.300 236.600 174.200 236.500 174.200 236.600 V 244.400 C 174.200 244.500 174.300 244.400 174.200 244.400 H 170.300 C 170.245 244.400 170.200 244.445 170.200 244.500 V 252.500 C 170.200 252.555 170.245 252.600 170.300 252.600 H 174.200 C 174.300 252.600 174.200 252.500 174.200 252.600 V 260.400 C 174.200 260.500 174.300 260.400 174.200 260.400 H 170.300 C 170.245 260.400 170.200 260.445 170.200 260.500 V 268.500 C 170.200 268.555 170.245 268.600 170.300 268.600 H 174.200 C 174.300 268.600 174.200 268.500 174.200 268.600 V 276.400 C 174.200 276.500 174.300 276.400 174.200 276.400 H 170.300 C 170.245 276.400 170.200 276.445 170.200 276.500 V 284.500 C 170.200 284.555 170.245 284.600 170.300 284.600 H 174.200 C 174.300 284.600 174.200 284.500 174.200 284.600 V 292.400 C 174.200 292.500 174.300 292.400 174.200 292.400 H 170.300 C 170.245 292.400 170.200 292.445 170.200 292.500 V 300.500 C 170.200 300.555 170.245 300.600 170.300 300.600 H 174.200 C 174.300 300.600 174.200 300.500 174.200 300.600 V 314.500 V 318.500 C 174.200 318.555 174.245 318.600 174.300 318.600" stroke="rgb(0,0,0)" stroke-width="0.20" />
</g>
<g id="p-3" style="fill:none;stroke-linecap:round;stroke-linejoin:round;">
  <text transform="matrix( 1.000 0.000 0.000 1.000 214.300 152.400 )" style="font-family: sans-serif ; font-weight: normal; font-style: normal; fill: rgb(255,0,0)" font-size="4px" text-anchor="middle" alignment-baseline="hanging">Wall 4</text><path d="M 174.300 208.400 H 186.300 C 186.355 208.400 186.400 208.355 186.400 208.300 V 204.400 C 186.400 204.300 186.300 204.400 186.400 204.400 H 194.200 C 194.300 204.400 194.200 204.300 194.200 204.400 V 208.300 C 194.200 208.355 194.245 208.400 194.300 208.400 H 202.300 C 202.355 208.400 202.400 208.355 202.400 208.300 V 204.400 C 202.400 204.300 202.300 204.400 202.400 204.400 H 210.200 C 210.300 204.400 210.200 204.300 210.200 204.400 V 208.300 C 210.200 208.355 210.245 208.400 210.300 208.400 H 218.300 C 218.355 208.400 218.400 208.355 218.400 208.300 V 204.400 C 218.400 204.300 218.300 204.400 218.400 204.400 H 226.200 C 226.300 204.400 226.200 204.300 226.200 204.400 V 208.300 C 226.200 208.355 226.245 208.400 226.300 208.400 H 234.300 C 234.355 208.400 234.400 208.355 234.400 208.300 V 204.400 C 234.400 204.300 234.300 204.400 234.400 204.400 H 242.200 C 242.300 204.400 242.200 204.300 242.200 204.400 V 208.300 C 242.200 208.355 242.245 208.400 242.300 208.400 H 254.300 C 254.355 208.400 254.400 208.355 254.400 208.300 V 204.300 V 190.400 C 254.400 190.300 254.300 190.400 254.400 190.400 H 258.300 C 258.355 190.400 258.400 190.355 258.400 190.300 V 182.300 C 258.400 182.245 258.355 182.200 258.300 182.200 H 254.400 C 254.300 182.200 254.400 182.300 254.400 182.200 V 174.400 C 254.400 174.300 254.300 174.400 254.400 174.400 H 258.300 C 258.355 174.400 258.400 174.355 258.400 174.300 V 166.300 C 258.400 166.245 258.355 166.200 258.300 166.200 H 254.400 C 254.300 166.200 254.400 166.300 254.400 166.200 V 158.400 C 254.400 158.300 254.300 158.400 254.400 158.400 H 258.300 C 258.355 158.400 258.400 158.355 258.400 158.300 V 150.300 C 258.400 150.245 258.355 150.200 258.300 150.200 H 254.400 C 254.300 150.200 254.400 150.300 254.400 150.200 V 142.400 C 254.400 142.300 254.300 142.400 254.400 142.400 H 258.300 C 258.355 142.400 258.400 142.355 258.400 142.300 V 134.300 C 258.400 134.245 258.355 134.200 258.300 134.200 H 254.400 C 254.300 134.200 254.400 134.300 254.400 134.200 V 126.400 C 254.400 126.300 254.300 126.400 254.400 126.400 H 258.300 C 258.355 126.400 258.400 126.355 258.400 126.300 V 118.300 C 258.400 118.245 258.355 118.200 258.300 118.200 H 254.400 C 254.300 118.200 254.400 118.300 254.400 118.200 V 104.300 V 100.300 C 254.400 100.245 254.355 100.200 254.300 100.200 H 242.300 C 242.245 100.200 242.200 100.245 242.200 100.300 V 104.200 C 242.200 104.300 242.300 104.200 242.200 104.200 H 234.400 C 234.300 104.200 234.400 104.300 234.400 104.200 V 100.300 C 234.400 100.245 234.355 100.200 234.300 100.200 H 226.300 C 226.245 100.200 226.200 100.245 226.200 100.300 V 104.200 C 226.200 104.300 226.300 104.200 226.200 104.200 H 218.400 C 218.300 104.200 218.400 104.300 218.400 104.200 V 100.300 C 218.400 100.245 218.355 100.200 218.300 100.200 H 210.300 C 210.245 100.200 210.200 100.245 210.200 100.300 V 104.200 C 210.200 104.300 210.300 104.200 210.200 104.200 H 202.400 C 202.300 104.200 202.400 104.300 202.400 104.200 V 100.300 C 202.400 100.245 202.355 100.200 202.300 100.200 H 194.300 C 194.245 100.200 194.200 100.245 194.200 100.300 V 104.200 C 194.200 104.300 194.300 104.200 194.200 104.200 H 186.400 C 186.300 104.200 186.400 104.300 186.400 104.200 V 100.300 C 186.400 100.245 186.355 100.200 186.300 100.200 H 174.300 C 174.245 100.200 174.200 100.245 174.200 100.300 V 104.300 V 118.200 C 174.200 118.300 174.300 118.200 174.200 118.200 H 170.300 C 170.245 118.200 170.200 118.245 170.200 118.300 V 126.300 C 170.200 126.355 170.245 126.400 170.300 126.400 H 174.200 C 174.300 126.400 174.200 126.300 174.200 126.400 V 134.200 C 174.200 134.300 174.300 134.200 174.200 134.200 H 170.300 C 170.245 134.200 170.200 134.245 170.200 134.300 V 142.300 C 170.200 142.355 170.245 142.400 170.300 142.400 H 174.200 C 174.300 142.400 174.200 142.300 174.200 142.400 V 150.200 C 174.200 150.300 174.300 150.200 174.200 150.200 H 170.300 C 170.245 150.200 170.200 150.245 170.200 150.300 V 158.300 C 170.200 158.355 170.245 158.400 170.300 158.400 H 174.200 C 174.300 158.400 174.200 158.300 174.200 158.400 V 166.200 C 174.200 166.300 174.300 166.200 174.200 166.200 H 170.300 C 170.245 166.200 170.200 166.245 170.200 166.300 V 174.300 C 170.200 174.355 170.245 174.400 170.300 174.400 H 174.200 C 174.300 174.400 174.200 174.300 174.200 174.400 V 182.200 C 174.200 182.300 174.300 182.200 174.200 182.200 H 170.300 C 170.245 182.200 170.200 182.245 170.200 182.300 V 190.300 C 170.200 190.355 170.245 190.400 170.300 190.400 H 174.200 C 174.300 190.400 174.200 190.300 174.200 190.400 V 204.300 V 208.300 C 174.200 208.355 174.245 208.400 174.300 208.400" stroke="rgb(0,0,0)" stroke-width="0.20" />
</g>
<g id="p-4" style="fill:none;stroke-linecap:round;stroke-linejoin:round;">
  <text transform="matrix( 1.000 0.000 0.000 1.000 89.100 152.400 )" style="font-family: sans-serif ; font-weight: normal; font-style: normal; fill: rgb(255,0,0)" font-size="4px" text-anchor="middle" alignment-baseline="hanging">Wall 3</text><path d="M 14.100 208.400 H 29.100 C 29.155 208.400 29.200 208.355 29.200 208.300 V 204.400 C 29.200 204.300 29.100 204.400 29.200 204.400 H 37.000 C 37.100 204.400 37.000 204.300 37.000 204.400 V 208.300 C 37.000 208.355 37.045 208.400 37.100 208.400 H 45.100 C 45.155 208.400 45.200 208.355 45.200 208.300 V 204.400 C 45.200 204.300 45.100 204.400 45.200 204.400 H 53.000 C 53.100 204.400 53.000 204.300 53.000 204.400 V 208.300 C 53.000 208.355 53.045 208.400 53.100 208.400 H 61.100 C 61.155 208.400 61.200 208.355 61.200 208.300 V 204.400 C 61.200 204.300 61.100 204.400 61.200 204.400 H 69.000 C 69.100 204.400 69.000 204.300 69.000 204.400 V 208.300 C 69.000 208.355 69.045 208.400 69.100 208.400 H 77.100 C 77.155 208.400 77.200 208.355 77.200 208.300 V 204.400 C 77.200 204.300 77.100 204.400 77.200 204.400 H 85.000 C 85.100 204.400 85.000 204.300 85.000 204.400 V 208.300 C 85.000 208.355 85.045 208.400 85.100 208.400 H 93.100 C 93.155 208.400 93.200 208.355 93.200 208.300 V 204.400 C 93.200 204.300 93.100 204.400 93.200 204.400 H 101.000 C 101.100 204.400 101.000 204.300 101.000 204.400 V 208.300 C 101.000 208.355 101.045 208.400 101.100 208.400 H 109.100 C 109.155 208.400 109.200 208.355 109.200 208.300 V 204.400 C 109.200 204.300 109.100 204.400 109.200 204.400 H 117.000 C 117.100 204.400 117.000 204.300 117.000 204.400 V 208.300 C 117.000 208.355 117.045 208.400 117.100 208.400 H 125.100 C 125.155 208.400 125.200 208.355 125.200 208.300 V 204.400 C 125.200 204.300 125.100 204.400 125.200 204.400 H 133.000 C 133.100 204.400 133.000 204.300 133.000 204.400 V 208.300 C 133.000 208.355 133.045 208.400 133.100 208.400 H 141.100 C 141.155 208.400 141.200 208.355 141.200 208.300 V 204.400 C 141.200 204.300 141.100 204.400 141.200 204.400 H 149.000 C 149.100 204.400 149.000 204.300 149.000 204.400 V 208.300 C 149.000 208.355 149.045 208.400 149.100 208.400 H 164.100 H 168.100 C 168.155 208.400 168.200 208.355 168.200 208.300 V 204.300 V 190.300 C 168.200 190.245 168.155 190.200 168.100 190.200 H 164.200 C 164.100 190.200 164.200 190.300 164.200 190.200 V 182.400 C 164.200 182.300 164.100 182.400 164.200 182.400 H 168.100 C 168.155 182.400 168.200 182.355 168.200 182.300 V 174.300 C 168.200 174.245 168.155 174.200 168.100 174.200 H 164.200 C 164.100 174.200 164.200 174.300 164.200 174.200 V 166.400 C 164.200 166.300 164.100 166.400 164.200 166.400 H 168.100 C 168.155 166.400 168.200 166.355 168.200 166.300 V 158.300 C 168.200 158.245 168.155 158.200 168.100 158.200 H 164.200 C 164.100 158.200 164.200 158.300 164.200 158.200 V 150.400 C 164.200 150.300 164.100 150.400 164.200 150.400 H 168.100 C 168.155 150.400 168.200 150.355 168.200 150.300 V 142.300 C 168.200 142.245 168.155 142.200 168.100 142.200 H 164.200 C 164.100 142.200 164.200 142.300 164.200 142.200 V 134.400 C 164.200 134.300 164.100 134.400 164.200 134.400 H 168.100 C 168.155 134.400 168.200 134.355 168.200 134.300 V 126.300 C 168.200 126.245 168.155 126.200 168.100 126.200 H 164.200 C 164.100 126.200 164.200 126.300 164.200 126.200 V 118.400 C 164.200 118.300 164.100 118.400 164.200 118.400 H 168.100 C 168.155 118.400 168.200 118.355 168.200 118.300 V 104.300 V 100.300 C 168.200 100.245 168.155 100.200 168.100 100.200 H 164.100 H 149.100 C 149.045 100.200 149.000 100.245 149.000 100.300 V 104.200 C 149.000 104.300 149.100 104.200 149.000 104.200 H 141.200 C 141.100 104.200 141.200 104.300 141.200 104.200 V 100.300 C 141.200 100.245 141.155 100.200 141.100 100.200 H 133.100 C 133.045 100.200 133.000 100.245 133.000 100.300 V 104.200 C 133.000 104.300 133.100 104.200 133.000 104.200 H 125.200 C 125.100 104.200 125.200 104.300 125.200 104.200 V 100.300 C 125.200 100.245 125.155 100.200 125.100 100.200 H 117.100 C 117.045 100.200 117.000 100.245 117.000 100.300 V 104.200 C 117.000 104.300 117.100 104.200 117.000 104.200 H 109.200 C 109.100 104.200 109.200 104.300 109.200 104.200 V 100.300 C 109.200 100.245 109.155 100.200 109.100 100.200 H 101.100 C 101.045 100.200 101.000 100.245 101.000 100.300 V 104.200 C 101.000 104.300 101.100 104.200 101.000 104.200 H 93.200 C 93.100 104.200 93.200 104.300 93.200 104.200 V 100.300 C 93.200 100.245 93.155 100.200 93.100 100.200 H 85.100 C 85.045 100.200 85.000 100.245 85.000 100.300 V 104.200 C 85.000 104.300 85.100 104.200 85.000 104.200 H 77.200 C 77.100 104.200 77.200 104.300 77.200 104.200 V 100.300 C 77.200 100.245 77.155 100.200 77.100 100.200 H 69.100 C 69.045 100.200 69.000 100.245 69.000 100.300 V 104.200 C 69.000 104.300 69.100 104.200 69.000 104.200 H 61.200 C 61.100 104.200 61.200 104.300 61.200 104.200 V 100.300 C 61.200 100.245 61.155 100.200 61.100 100.200 H 53.100 C 53.045 100.200 53.000 100.245 53.000 100.300 V 104.200 C 53.000 104.300 53.100 104.200 53.000 104.200 H 45.200 C 45.100 104.200 45.200 104.300 45.200 104.200 V 100.300 C 45.200 100.245 45.155 100.200 45.100 100.200 H 37.100 C 37.045 100.200 37.000 100.245 37.000 100.300 V 104.200 C 37.000 104.300 37.100 104.200 37.000 104.200 H 29.200 C 29.100 104.200 29.200 104.300 29.200 104.200 V 100.300 C 29.200 100.245 29.155 100.200 29.100 100.200 H 14.100 H 10.100 C 10.045 100.200 10.000 100.245 10.000 100.300 V 104.300 V 118.300 C 10.000 118.355 10.045 118.400 10.100 118.400 H 14.000 C 14.100 118.400 14.000 118.300 14.000 118.400 V 126.200 C 14.000 126.300 14.100 126.200 14.000 126.200 H 10.100 C 10.045 126.200 10.000 126.245 10.000 126.300 V 134.300 C 10.000 134.355 10.045 134.400 10.100 134.400 H 14.000 C 14.100 134.400 14.000 134.300 14.000 134.400 V 142.200 C 14.000 142.300 14.100 142.200 14.000 142.200 H 10.100 C 10.045 142.200 10.000 142.245 10.000 142.300 V 150.300 C 10.000 150.355 10.045 150.400 10.100 150.400 H 14.000 C 14.100 150.400 14.000 150.300 14.000 150.400 V 158.200 C 14.000 158.300 14.100 158.200 14.000 158.200 H 10.100 C 10.045 158.200 10.000 158.245 10.000 158.300 V 166.300 C 10.000 166.355 10.045 166.400 10.100 166.400 H 14.000 C 14.100 166.400 14.000 166.300 14.000 166.400 V 174.200 C 14.000 174.300 14.100 174.200 14.000 174.200 H 10.100 C 10.045 174.200 10.000 174.245 10.000 174.300 V 182.300 C 10.000 182.355 10.045 182.400 10.100 182.400 H 14.000 C 14.100 182.400 14.000 182.300 14.000 182.400 V 190.200 C 14.000 190.300 14.100 190.200 14.000 190.200 H 10.100 C 10.045 190.200 10.000 190.245 10.000 190.300 V 204.300 V 208.300 C 10.000 208.355 10.045 208.400 10.100 208.400 H 14.100" stroke="rgb(0,0,0)" stroke-width="0.20" />
</g>
<g id="p-5" style="fill:none;stroke-linecap:round;stroke-linejoin:round;">
  <text transform="matrix( 1.000 0.000 0.000 1.000 89.100 52.200 )" style="font-family: sans-serif ; font-weight: normal; font-style: normal; fill: rgb(255,0,0)" font-size="4px" text-anchor="middle" alignment-baseline="hanging">Top</text><path d="M 14.100 94.200 H 29.000 C 29.100 94.200 29.000 94.100 29.000 94.200 V 98.100 C 29.000 98.155 29.045 98.200 29.100 98.200 H 37.100 C 37.155 98.200 37.200 98.155 37.200 98.100 V 94.200 C 37.200 94.100 37.100 94.200 37.200 94.200 H 45.000 C 45.100 94.200 45.000 94.100 45.000 94.200 V 98.100 C 45.000 98.155 45.045 98.200 45.100 98.200 H 53.100 C 53.155 98.200 53.200 98.155 53.200 98.100 V 94.200 C 53.200 94.100 53.100 94.200 53.200 94.200 H 61.000 C 61.100 94.200 61.000 94.100 61.000 94.200 V 98.100 C 61.000 98.155 61.045 98.200 61.100 98.200 H 69.100 C 69.155 98.200 69.200 98.155 69.200 98.100 V 94.200 C 69.200 94.100 69.100 94.200 69.200 94.200 H 77.000 C 77.100 94.200 77.000 94.100 77.000 94.200 V 98.100 C 77.000 98.155 77.045 98.200 77.100 98.200 H 85.100 C 85.155 98.200 85.200 98.155 85.200 98.100 V 94.200 C 85.200 94.100 85.100 94.200 85.200 94.200 H 93.000 C 93.100 94.200 93.000 94.100 93.000 94.200 V 98.100 C 93.000 98.155 93.045 98.200 93.100 98.200 H 101.100 C 101.155 98.200 101.200 98.155 101.200 98.100 V 94.200 C 101.200 94.100 101.100 94.200 101.200 94.200 H 109.000 C 109.100 94.200 109.000 94.100 109.000 94.200 V 98.100 C 109.000 98.155 109.045 98.200 109.100 98.200 H 117.100 C 117.155 98.200 117.200 98.155 117.200 98.100 V 94.200 C 117.200 94.100 117.100 94.200 117.200 94.200 H 125.000 C 125.100 94.200 125.000 94.100 125.000 94.200 V 98.100 C 125.000 98.155 125.045 98.200 125.100 98.200 H 133.100 C 133.155 98.200 133.200 98.155 133.200 98.100 V 94.200 C 133.200 94.100 133.100 94.200 133.200 94.200 H 141.000 C 141.100 94.200 141.000 94.100 141.000 94.200 V 98.100 C 141.000 98.155 141.045 98.200 141.100 98.200 H 149.100 C 149.155 98.200 149.200 98.155 149.200 98.100 V 94.200 C 149.200 94.100 149.100 94.200 149.200 94.200 H 164.100 C 164.155 94.200 164.200 94.155 164.200 94.100 V 82.200 C 164.200 82.100 164.100 82.200 164.200 82.200 H 168.100 C 168.155 82.200 168.200 82.155 168.200 82.100 V 74.100 C 168.200 74.045 168.155 74.000 168.100 74.000 H 164.200 C 164.100 74.000 164.200 74.100 164.200 74.000 V 66.200 C 164.200 66.100 164.100 66.200 164.200 66.200 H 168.100 C 168.155 66.200 168.200 66.155 168.200 66.100 V 58.100 C 168.200 58.045 168.155 58.000 168.100 58.000 H 164.200 C 164.100 58.000 164.200 58.100 164.200 58.000 V 50.200 C 164.200 50.100 164.100 50.200 164.200 50.200 H 168.100 C 168.155 50.200 168.200 50.155 168.200 50.100 V 42.100 C 168.200 42.045 168.155 42.000 168.100 42.000 H 164.200 C 164.100 42.000 164.200 42.100 164.200 42.000 V 34.200 C 164.200 34.100 164.100 34.200 164.200 34.200 H 168.100 C 168.155 34.200 168.200 34.155 168.200 34.100 V 26.100 C 168.200 26.045 168.155 26.000 168.100 26.000 H 164.200 C 164.100 26.000 164.200 26.100 164.200 26.000 V 14.100 C 164.200 14.045 164.155 14.000 164.100 14.000 H 149.200 C 149.100 14.000 149.200 14.100 149.200 14.000 V 10.100 C 149.200 10.045 149.155 10.000 149.100 10.000 H 141.100 C 141.045 10.000 141.000 10.045 141.000 10.100 V 14.000 C 141.000 14.100 141.100 14.000 141.000 14.000 H 133.200 C 133.100 14.000 133.200 14.100 133.200 14.000 V 10.100 C 133.200 10.045 133.155 10.000 133.100 10.000 H 125.100 C 125.045 10.000 125.000 10.045 125.000 10.100 V 14.000 C 125.000 14.100 125.100 14.000 125.000 14.000 H 117.200 C 117.100 14.000 117.200 14.100 117.200 14.000 V 10.100 C 117.200 10.045 117.155 10.000 117.100 10.000 H 109.100 C 109.045 10.000 109.000 10.045 109.000 10.100 V 14.000 C 109.000 14.100 109.100 14.000 109.000 14.000 H 101.200 C 101.100 14.000 101.200 14.100 101.200 14.000 V 10.100 C 101.200 10.045 101.155 10.000 101.100 10.000 H 93.100 C 93.045 10.000 93.000 10.045 93.000 10.100 V 14.000 C 93.000 14.100 93.100 14.000 93.000 14.000 H 85.200 C 85.100 14.000 85.200 14.100 85.200 14.000 V 10.100 C 85.200 10.045 85.155 10.000 85.100 10.000 H 77.100 C 77.045 10.000 77.000 10.045 77.000 10.100 V 14.000 C 77.000 14.100 77.100 14.000 77.000 14.000 H 69.200 C 69.100 14.000 69.200 14.100 69.200 14.000 V 10.100 C 69.200 10.045 69.155 10.000 69.100 10.000 H 61.100 C 61.045 10.000 61.000 10.045 61.000 10.100 V 14.000 C 61.000 14.100 61.100 14.000 61.000 14.000 H 53.200 C 53.100 14.000 53.200 14.100 53.200 14.000 V 10.100 C 53.200 10.045 53.155 10.000 53.100 10.000 H 45.100 C 45.045 10.000 45.000 10.045 45.000 10.100 V 14.000 C 45.000 14.100 45.100 14.000 45.000 14.000 H 37.200 C 37.100 14.000 37.200 14.100 37.200 14.000 V 10.100 C 37.200 10.045 37.155 10.000 37.100 10.000 H 29.100 C 29.045 10.000 29.000 10.045 29.000 10.100 V 14.000 C 29.000 14.100 29.100 14.000 29.000 14.000 H 14.100 C 14.045 14.000 14.000 14.045 14.000 14.100 V 26.000 C 14.000 26.100 14.100 26.000 14.000 26.000 H 10.100 C 10.045 26.000 10.000 26.045 10.000 26.100 V 34.100 C 10.000 34.155 10.045 34.200 10.100 34.200 H 14.000 C 14.100 34.200 14.000 34.100 14.000 34.200 V 42.000 C 14.000 42.100 14.100 42.000 14.000 42.000 H 10.100 C 10.045 42.000 10.000 42.045 10.000 42.100 V 50.100 C 10.000 50.155 10.045 50.200 10.100 50.200 H 14.000 C 14.100 50.200 14.000 50.100 14.000 50.200 V 58.000 C 14.000 58.100 14.100 58.000 14.000 58.000 H 10.100 C 10.045 58.000 10.000 58.045 10.000 58.100 V 66.100 C 10.000 66.155 10.045 66.200 10.100 66.200 H 14.000 C 14.100 66.200 14.000 66.100 14.000 66.200 V 74.000 C 14.000 74.100 14.100 74.000 14.000 74.000 H 10.100 C 10.045 74.000 10.000 74.045 10.000 74.100 V 82.100 C 10.000 82.155 10.045 82.200 10.100 82.200 H 14.000 C 14.100 82.200 14.000 82.100 14.000 82.200 V 94.100 C 14.000 94.155 14.045 94.200 14.100 94.200" stroke="rgb(0,0,0)" stroke-width="0.20" />
</g>
<g id="p-6" style="fill:none;stroke-linecap:round;stroke-linejoin:round;">
  <text transform="matrix( 1.000 0.000 0.000 1.000 249.300 52.200 )" style="font-family: sans-serif ; font-weight: normal; font-style: normal; fill: rgb(255,0,0)" font-size="4px" text-anchor="middle" alignment-baseline="hanging">Bottom</text><path d="M 174.300 94.200 H 189.200 C 189.300 94.200 189.200 94.100 189.200 94.200 V 98.100 C 189.200 98.155 189.245 98.200 189.300 98.200 H 197.300 C 197.355 98.200 197.400 98.155 197.400 98.100 V 94.200 C 197.400 94.100 197.300 94.200 197.400 94.200 H 205.200 C 205.300 94.200 205.200 94.100 205.200 94.200 V 98.100 C 205.200 98.155 205.245 98.200 205.300 98.200 H 213.300 C 213.355 98.200 213.400 98.155 213.400 98.100 V 94.200 C 213.400 94.100 213.300 94.200 213.400 94.200 H 221.200 C 221.300 94.200 221.200 94.100 221.200 94.200 V 98.100 C 221.200 98.155 221.245 98.200 221.300 98.200 H 229.300 C 229.355 98.200 229.400 98.155 229.400 98.100 V 94.200 C 229.400 94.100 229.300 94.200 229.400 94.200 H 237.200 C 237.300 94.200 237.200 94.100 237.200 94.200 V 98.100 C 237.200 98.155 237.245 98.200 237.300 98.200 H 245.300 C 245.355 98.200 245.400 98.155 245.400 98.100 V 94.200 C 245.400 94.100 245.300 94.200 245.400 94.200 H 253.200 C 253.300 94.200 253.200 94.100 253.200 94.200 V 98.100 C 253.200 98.155 253.245 98.200 253.300 98.200 H 261.300 C 261.355 98.200 261.400 98.155 261.400 98.100 V 94.200 C 261.400 94.100 261.300 94.200 261.400 94.200 H 269.200 C 269.300 94.200 269.200 94.100 269.200 94.200 V 98.100 C 269.200 98.155 269.245 98.200 269.300 98.200 H 277.300 C 277.355 98.200 277.400 98.155 277.400 98.100 V 94.200 C 277.400 94.100 277.300 94.200 277.400 94.200 H 285.200 C 285.300 94.200 285.200 94.100 285.200 94.200 V 98.100 C 285.200 98.155 285.245 98.200 285.300 98.200 H 293.300 C 293.355 98.200 293.400 98.155 293.400 98.100 V 94.200 C 293.400 94.100 293.300 94.200 293.400 94.200 H 301.200 C 301.300 94.200 301.200 94.100 301.200 94.200 V 98.100 C 301.200 98.155 301.245 98.200 301.300 98.200 H 309.300 C 309.355 98.200 309.400 98.155 309.400 98.100 V 94.200 C 309.400 94.100 309.300 94.200 309.400 94.200 H 324.300 C 324.355 94.200 324.400 94.155 324.400 94.100 V 82.200 C 324.400 82.100 324.300 82.200 324.400 82.200 H 328.300 C 328.355 82.200 328.400 82.155 328.400 82.100 V 74.100 C 328.400 74.045 328.355 74.000 328.300 74.000 H 324.400 C 324.300 74.000 324.400 74.100 324.400 74.000 V 66.200 C 324.400 66.100 324.300 66.200 324.400 66.200 H 328.300 C 328.355 66.200 328.400 66.155 328.400 66.100 V 58.100 C 328.400 58.045 328.355 58.000 328.300 58.000 H 324.400 C 324.300 58.000 324.400 58.100 324.400 58.000 V 50.200 C 324.400 50.100 324.300 50.200 324.400 50.200 H 328.300 C 328.355 50.200 328.400 50.155 328.400 50.100 V 42.100 C 328.400 42.045 328.355 42.000 328.300 42.000 H 324.400 C 324.300 42.000 324.400 42.100 324.400 42.000 V 34.200 C 324.400 34.100 324.300 34.200 324.400 34.200 H 328.300 C 328.355 34.200 328.400 34.155 328.400 34.100 V 26.100 C 328.400 26.045 328.355 26.000 328.300 26.000 H 324.400 C 324.300 26.000 324.400 26.100 324.400 26.000 V 14.100 C 324.400 14.045 324.355 14.000 324.300 14.000 H 309.400 C 309.300 14.000 309.400 14.100 309.400 14.000 V 10.100 C 309.400 10.045 309.355 10.000 309.300 10.000 H 301.300 C 301.245 10.000 301.200 10.045 301.200 10.100 V 14.000 C 301.200 14.100 301.300 14.000 301.200 14.000 H 293.400 C 293.300 14.000 293.400 14.100 293.400 14.000 V 10.100 C 293.400 10.045 293.355 10.000 293.300 10.000 H 285.300 C 285.245 10.000 285.200 10.045 285.200 10.100 V 14.000 C 285.200 14.100 285.300 14.000 285.200 14.000 H 277.400 C 277.300 14.000 277.400 14.100 277.400 14.000 V 10.100 C 277.400 10.045 277.355 10.000 277.300 10.000 H 269.300 C 269.245 10.000 269.200 10.045 269.200 10.100 V 14.000 C 269.200 14.100 269.300 14.000 269.200 14.000 H 261.400 C 261.300 14.000 261.400 14.100 261.400 14.000 V 10.100 C 261.400 10.045 261.355 10.000 261.300 10.000 H 253.300 C 253.245 10.000 253.200 10.045 253.200 10.100 V 14.000 C 253.200 14.100 253.300 14.000 253.200 14.000 H 245.400 C 245.300 14.000 245.400 14.100 245.400 14.000 V 10.100 C 245.400 10.045 245.355 10.000 245.300 10.000 H 237.300 C 237.245 10.000 237.200 10.045 237.200 10.100 V 14.000 C 237.200 14.100 237.300 14.000 237.200 14.000 H 229.400 C 229.300 14.000 229.400 14.100 229.400 14.000 V 10.100 C 229.400 10.045 229.355 10.000 229.300 10.000 H 221.300 C 221.245 10.000 221.200 10.045 221.200 10.100 V 14.000 C 221.200 14.100 221.300 14.000 221.200 14.000 H 213.400 C 213.300 14.000 213.400 14.100 213.400 14.000 V 10.100 C 213.400 10.045 213.355 10.000 213.300 10.000 H 205.300 C 205.245 10.000 205.200 10.045 205.200 10.100 V 14.000 C 205.200 14.100 205.300 14.000 205.200 14.000 H 197.400 C 197.300 14.000 197.400 14.100 197.400 14.000 V 10.100 C 197.400 10.045 197.355 10.000 197.300 10.000 H 189.300 C 189.245 10.000 189.200 10.045 189.200 10.100 V 14.000 C 189.200 14.100 189.300 14.000 189.200 14.000 H 174.300 C 174.245 14.000 174.200 14.045 174.200 14.100 V 26.000 C 174.200 26.100 174.300 26.000 174.200 26.000 H 170.300 C 170.245 26.000 170.200 26.045 170.200 26.100 V 34.100 C 170.200 34.155 170.245 34.200 170.300 34.200 H 174.200 C 174.300 34.200 174.200 34.100 174.200 34.200 V 42.000 C 174.200 42.100 174.300 42.000 174.200 42.000 H 170.300 C 170.245 42.000 170.200 42.045 170.200 42.100 V 50.100 C 170.200 50.155 170.245 50.200 170.300 50.200 H 174.200 C 174.300 50.200 174.200 50.100 174.200 50.200 V 58.000 C 174.200 58.100 174.300 58.000 174.200 58.000 H 170.300 C 170.245 58.000 170.200 58.045 170.200 58.100 V 66.100 C 170.200 66.155 170.245 66.200 170.300 66.200 H 174.200 C 174.300 66.200 174.200 66.100 174.200 66.200 V 74.000 C 174.200 74.100 174.300 74.000 174.200 74.000 H 170.300 C 170.245 74.000 170.200 74.045 170.200 74.100 V 82.100 C 170.200 82.155 170.245 82.200 170.300 82.200 H 174.200 C 174.300 82.200 174.200 82.100 174.200 82.200 V 94.100 C 174.200 94.155 174.245 94.200 174.300 94.200" stroke="rgb(0,0,0)" stroke-width="0.20" />
</g>
</svg>